<?xml version="1.0" encoding="UTF-8" standalone="no"?>
<!DOCTYPE svg PUBLIC "-//W3C//DTD SVG 1.1//EN" "http://www.w3.org/Graphics/SVG/1.1/DTD/svg11.dtd">
<svg width="100%" height="100%" viewBox="0 0 100 100" version="1.1" xmlns="http://www.w3.org/2000/svg" xmlns:xlink="http://www.w3.org/1999/xlink" xml:space="preserve" xmlns:serif="http://www.serif.com/" style="fill-rule:evenodd;clip-rule:evenodd;stroke-linejoin:round;stroke-miterlimit:2;">
    <g id="fond" transform="matrix(0.915825,0,0,0.915825,4.20876,4.20875)">
        <path d="M100,14.315C100,6.409 93.591,0 85.685,0L14.315,0C6.409,0 0,6.409 -0,14.315L0,85.685C0,93.591 6.409,100 14.315,100L85.685,100C93.591,100 100,93.591 100,85.685L100,14.315Z" style="fill:white;"/>
    </g>
    <g transform="matrix(0.0893755,0,0,0.0893755,4.27997,4.23975)">
        <path d="M511.6,76.3C264.3,76.2 64,276.4 64,523.5C64,718.9 189.3,885 363.8,946C387.3,951.9 383.7,935.2 383.7,923.8L383.7,846.3C248,862.2 242.5,772.4 233.4,757.4C215,726 171.5,718 184.5,703C215.4,687.1 246.9,707 283.4,760.9C309.8,800 361.3,793.4 387.4,786.9C393.1,763.4 405.3,742.4 422.1,726.1C281.5,700.9 222.9,615.1 222.9,513.1C222.9,463.6 239.2,418.1 271.2,381.4C250.8,320.9 273.1,269.1 276.1,261.4C334.2,256.2 394.6,303 399.3,306.7C432.3,297.8 470,293.1 512.2,293.1C554.6,293.1 592.4,298 625.7,307C637,298.4 693,258.2 747,263.1C749.9,270.8 771.7,321.4 752.5,381.1C784.9,417.9 801.4,463.8 801.4,513.4C801.4,615.6 742.4,701.5 601.4,726.3C625.786,750.282 639.525,783.097 639.5,817.3L639.5,929.8C640.3,938.8 639.5,947.7 654.5,947.7C831.6,888 959.1,720.7 959.1,523.6C959.1,276.4 758.7,76.3 511.6,76.3Z" style="fill-rule:nonzero;"/>
    </g>
</svg>
