<?xml version="1.0" encoding="UTF-8" standalone="no"?>
<!DOCTYPE svg PUBLIC "-//W3C//DTD SVG 1.1//EN" "http://www.w3.org/Graphics/SVG/1.1/DTD/svg11.dtd">
<svg width="100%" height="100%" viewBox="0 0 100 100" version="1.1" xmlns="http://www.w3.org/2000/svg" xmlns:xlink="http://www.w3.org/1999/xlink" xml:space="preserve" xmlns:serif="http://www.serif.com/" style="fill-rule:evenodd;clip-rule:evenodd;stroke-linejoin:round;stroke-miterlimit:2;">
    <g id="fond" transform="matrix(0.915825,0,0,0.915825,4.20876,4.20875)">
        <path d="M100,14.315C100,6.409 93.591,0 85.685,0L14.315,0C6.409,0 0,6.409 -0,14.315L0,85.685C0,93.591 6.409,100 14.315,100L85.685,100C93.591,100 100,93.591 100,85.685L100,14.315Z" style="fill:white;"/>
    </g>
    <g id="Linkedin">
        <g transform="matrix(0.130417,0,0,0.130417,-49.0026,-25.6156)">
            <path d="M1065.83,760.517C1065.83,830.12 1009.44,886.51 939.834,886.51L578.427,886.51C508.835,886.51 452.414,830.12 452.414,760.517L452.414,399.1C452.414,329.521 508.835,273.086 578.427,273.086L939.834,273.086C1009.44,273.086 1065.83,329.521 1065.83,399.1L1065.83,760.517Z" style="fill:rgb(40,103,178);fill-rule:nonzero;"/>
        </g>
        <g transform="matrix(0.130417,0,0,0.130417,-49.0026,-25.6156)">
            <path d="M590.383,358.087C619.801,358.087 643.719,382.022 643.719,411.501C643.719,440.96 619.801,464.834 590.383,464.834C560.877,464.834 537.03,440.96 537.03,411.501C537.03,382.022 560.877,358.087 590.383,358.087ZM544.334,505.319L636.405,505.319L636.405,801.506L544.334,801.506L544.334,505.319Z" style="fill:white;fill-rule:nonzero;"/>
        </g>
        <g transform="matrix(0.130417,0,0,0.130417,-49.0026,-25.6156)">
            <path d="M694.137,505.319L782.452,505.319L782.452,545.838L783.715,545.838C795.994,522.529 826.028,498.004 870.804,498.004C964.029,498.004 981.242,559.326 981.242,639.056L981.242,801.506L889.219,801.506L889.219,657.472C889.219,623.126 888.627,578.919 841.365,578.919C793.475,578.919 786.16,616.381 786.16,655.009L786.16,801.506L694.137,801.506L694.137,505.319Z" style="fill:white;fill-rule:nonzero;"/>
        </g>
    </g>
</svg>
