<?xml version="1.0" encoding="UTF-8" standalone="no"?>
<!DOCTYPE svg PUBLIC "-//W3C//DTD SVG 1.1//EN" "http://www.w3.org/Graphics/SVG/1.1/DTD/svg11.dtd">
<svg width="100%" height="100%" viewBox="0 0 100 100" version="1.1" xmlns="http://www.w3.org/2000/svg" xmlns:xlink="http://www.w3.org/1999/xlink" xml:space="preserve" xmlns:serif="http://www.serif.com/" style="fill-rule:evenodd;clip-rule:evenodd;stroke-linejoin:round;stroke-miterlimit:2;">
    <g id="fond" transform="matrix(0.915825,0,0,0.915825,4.20876,4.20875)">
        <path d="M100,49.999C100,22.385 77.615,0 50.001,0L49.999,0C22.385,0 -0,22.385 0,49.999L0,50.001C-0,77.615 22.385,100 49.999,100L50.001,100C63.262,100 75.979,94.732 85.356,85.356C94.732,75.979 100,63.262 100,50.001L100,49.999Z" style="fill:white;"/>
    </g>
    <g id="Mail">
        <g transform="matrix(0.154158,0,0,0.154158,-103,-86.7299)">
            <path d="M992.487,654.793C863.604,654.793 758.75,759.647 758.75,888.53C758.75,1017.41 863.604,1122.27 992.487,1122.27C1121.37,1122.27 1226.22,1017.41 1226.22,888.53C1226.22,759.647 1121.37,654.793 992.487,654.793ZM992.487,1148C957.464,1148 923.482,1141.14 891.484,1127.61C860.584,1114.54 832.837,1095.83 809.011,1072.01C785.185,1048.18 766.478,1020.43 753.409,989.533C739.875,957.536 733.013,923.553 733.013,888.53C733.013,853.507 739.875,819.525 753.409,787.527C766.478,756.627 785.185,728.879 809.011,705.054C832.837,681.228 860.584,662.521 891.484,649.451C923.482,635.918 957.464,629.055 992.487,629.055C1027.51,629.055 1061.49,635.918 1093.49,649.451C1124.39,662.521 1152.14,681.228 1175.96,705.054C1199.79,728.879 1218.5,756.627 1231.57,787.527C1245.1,819.525 1251.96,853.507 1251.96,888.53C1251.96,923.553 1245.1,957.536 1231.57,989.533C1218.5,1020.43 1199.79,1048.18 1175.96,1072.01C1152.14,1095.83 1124.39,1114.54 1093.49,1127.61C1061.49,1141.14 1027.51,1148 992.487,1148Z" style="fill:url(#_Linear1);fill-rule:nonzero;"/>
        </g>
        <g transform="matrix(0.154158,0,0,0.154158,-103,-86.7299)">
            <path d="M858.63,813.938C856.794,818.198 855.781,822.886 855.781,827.811L855.781,949.249C855.781,949.455 855.803,949.653 855.808,949.858L945.19,871.648L858.63,813.938ZM1126.14,813.528L1038.96,871.648L1129.12,950.546C1129.14,950.112 1129.19,949.688 1129.19,949.25L1129.19,827.811C1129.19,822.724 1128.09,817.898 1126.14,813.528ZM991.867,902.858L961.816,882.73L871.873,962.092L862.53,969.877C869.144,978.985 880.02,984.923 892.394,984.923L1092.58,984.923C1104.83,984.923 1115.61,979.092 1122.25,970.138L1022.35,882.72L991.867,902.858ZM892.394,792.137C884.204,792.137 876.684,794.76 870.598,799.153L992.074,880.137L1113.98,798.865C1107.97,794.644 1100.59,792.137 1092.58,792.137L892.394,792.137Z" style="fill:url(#_Linear2);fill-rule:nonzero;"/>
        </g>
    </g>
    <defs>
        <linearGradient id="_Linear1" x1="0" y1="0" x2="1" y2="0" gradientUnits="userSpaceOnUse" gradientTransform="matrix(518.947,0,0,518.945,733.013,888.527)"><stop offset="0" style="stop-color:rgb(134,179,233);stop-opacity:1"/><stop offset="1" style="stop-color:rgb(0,41,93);stop-opacity:1"/></linearGradient>
        <linearGradient id="_Linear2" x1="0" y1="0" x2="1" y2="0" gradientUnits="userSpaceOnUse" gradientTransform="matrix(518.947,0,0,518.945,733.013,888.527)"><stop offset="0" style="stop-color:rgb(134,179,233);stop-opacity:1"/><stop offset="1" style="stop-color:rgb(0,41,93);stop-opacity:1"/></linearGradient>
    </defs>
</svg>
